# MagicaVoxel @ Ephtracy

# group
o 

# material
mtllib CHR_Woman1.mtl
usemtl palette

# normals
vn -1 0 0
vn 1 0 0
vn 0 0 1
vn 0 0 -1
vn 0 -1 0
vn 0 1 0

# texcoords
vt 0.00195313 0.5
vt 0.00585938 0.5
vt 0.0175781 0.5
vt 0.0214844 0.5
vt 0.0332031 0.5
vt 0.0683594 0.5
vt 0.537109 0.5
vt 0.841797 0.5
vt 0.919922 0.5
vt 0.935547 0.5
vt 0.994141 0.5

# verts
v -0.4 0.3 0
v -0.4 0.3 -0.2
v -0.4 0.7 0
v -0.4 0.7 -0.2
v -0.3 0.3 0.2
v -0.3 0.3 0
v -0.3 0.3 -0.2
v -0.3 0.3 -0.3
v -0.3 0.7 0.2
v -0.3 0.7 0
v -0.3 0.7 -0.2
v -0.3 0.7 -0.3
v -0.3 0.8 -0.1
v -0.3 0.8 -0.2
v -0.3 0.8 -0.3
v -0.3 0.8 -0.4
v -0.3 1 0.1
v -0.3 1 -0.1
v -0.3 1 -0.3
v -0.3 1 -0.4
v -0.3 1.1 0.2
v -0.3 1.1 0.1
v -0.3 1.1 -0.2
v -0.3 1.1 -0.3
v -0.3 1.2 0.2
v -0.3 1.2 -0.2
v -0.2 0 0
v -0.2 0 -0.1
v -0.2 0.2 0
v -0.2 0.2 -0.1
v -0.2 0.3 0
v -0.2 0.3 -0.1
v -0.2 0.5 -0.3
v -0.2 0.5 -0.4
v -0.2 0.7 -0.3
v -0.2 0.8 -0.3
v -0.2 0.8 -0.4
v -0.2 1 -0.3
v -0.2 1 -0.4
v -0.2 1.1 -0.2
v -0.2 1.1 -0.3
v -0.2 1.1 -0.4
v -0.2 1.2 0.1
v -0.2 1.2 -0.1
v -0.2 1.2 -0.2
v -0.2 1.2 -0.3
v -0.2 1.3 0.1
v -0.2 1.3 -0.1
v -0.1 0.3 -0.3
v -0.1 0.3 -0.4
v -0.1 0.5 -0.3
v -0.1 0.5 -0.4
v -0.1 1.1 -0.3
v -0.1 1.1 -0.4
v -0.1 1.2 0.2
v -0.1 1.2 0.1
v -0.1 1.2 -0.1
v -0.1 1.2 -0.2
v -0.1 1.2 -0.3
v -0.1 1.2 -0.4
v -0.1 1.3 0.2
v -0.1 1.3 0.1
v -0.1 1.3 -0.1
v -0.1 1.3 -0.2
v 0 0.5 -0.3
v 0 0.5 -0.4
v 0 0.6 -0.3
v 0 0.6 -0.4
v 0.1 0 0
v 0.1 0 -0.1
v 0.1 0.2 0
v 0.1 0.2 -0.1
v 0.1 0.3 0
v 0.1 0.3 -0.1
v 0.2 0.6 -0.3
v 0.2 0.6 -0.4
v 0.2 0.7 -0.3
v 0.2 0.7 -0.4
v -0.1 0 0
v -0.1 0 -0.1
v -0.1 0.2 0
v -0.1 0.2 -0.1
v -0.1 0.3 0
v -0.1 0.3 -0.1
v -0.1 0.5 -0.3
v -0.1 0.5 -0.4
v -0.1 0.6 -0.3
v -0.1 0.6 -0.4
v 0.1 0.3 -0.3
v 0.1 0.3 -0.4
v 0.1 0.5 -0.3
v 0.1 0.5 -0.4
v 0.1 0.7 -0.3
v 0.1 0.7 -0.4
v 0.1 1.1 -0.3
v 0.1 1.1 -0.4
v 0.1 1.2 0.2
v 0.1 1.2 0.1
v 0.1 1.2 -0.1
v 0.1 1.2 -0.2
v 0.1 1.2 -0.3
v 0.1 1.2 -0.4
v 0.1 1.3 0.2
v 0.1 1.3 0.1
v 0.1 1.3 -0.1
v 0.1 1.3 -0.2
v 0.2 0 0
v 0.2 0 -0.1
v 0.2 0.2 0
v 0.2 0.2 -0.1
v 0.2 0.3 0
v 0.2 0.3 -0.1
v 0.2 1 -0.3
v 0.2 1 -0.4
v 0.2 1.1 -0.2
v 0.2 1.1 -0.3
v 0.2 1.1 -0.4
v 0.2 1.2 0.1
v 0.2 1.2 -0.1
v 0.2 1.2 -0.2
v 0.2 1.2 -0.3
v 0.2 1.3 0.1
v 0.2 1.3 -0.1
v 0.3 0.3 0.2
v 0.3 0.3 0
v 0.3 0.3 -0.2
v 0.3 0.3 -0.3
v 0.3 0.6 -0.3
v 0.3 0.6 -0.4
v 0.3 0.7 0.2
v 0.3 0.7 0
v 0.3 0.7 -0.2
v 0.3 0.7 -0.3
v 0.3 0.8 -0.1
v 0.3 0.8 -0.2
v 0.3 1 0.1
v 0.3 1 -0.1
v 0.3 1 -0.3
v 0.3 1 -0.4
v 0.3 1.1 0.2
v 0.3 1.1 0.1
v 0.3 1.1 -0.2
v 0.3 1.1 -0.3
v 0.3 1.2 0.2
v 0.3 1.2 -0.2
v 0.4 0.3 0
v 0.4 0.3 -0.2
v 0.4 0.7 0
v 0.4 0.7 -0.2
v -0.3 0.3 0.2
v -0.3 0.7 0.2
v -0.3 1.1 0.2
v -0.3 1.2 0.2
v -0.2 0.9 0.2
v -0.2 1 0.2
v -0.1 0.9 0.2
v -0.1 1 0.2
v -0.1 1.2 0.2
v -0.1 1.3 0.2
v 0.1 0.9 0.2
v 0.1 1 0.2
v 0.1 1.2 0.2
v 0.1 1.3 0.2
v 0.2 0.9 0.2
v 0.2 1 0.2
v 0.3 0.3 0.2
v 0.3 0.7 0.2
v 0.3 1.1 0.2
v 0.3 1.2 0.2
v -0.2 1.2 0.1
v -0.2 1.3 0.1
v -0.1 1.2 0.1
v -0.1 1.3 0.1
v 0.1 1.2 0.1
v 0.1 1.3 0.1
v 0.2 1.2 0.1
v 0.2 1.3 0.1
v -0.4 0.3 0
v -0.4 0.7 0
v -0.3 0.3 0
v -0.3 0.7 0
v -0.2 0 0
v -0.2 0.2 0
v -0.2 0.3 0
v -0.1 0 0
v -0.1 0.2 0
v -0.1 0.3 0
v 0.1 0 0
v 0.1 0.2 0
v 0.1 0.3 0
v 0.2 0 0
v 0.2 0.2 0
v 0.2 0.3 0
v 0.3 0.3 0
v 0.3 0.7 0
v 0.4 0.3 0
v 0.4 0.7 0
v -0.2 0 -0.1
v -0.2 0.2 -0.1
v -0.2 0.3 -0.1
v -0.2 1.2 -0.1
v -0.2 1.3 -0.1
v -0.1 0 -0.1
v -0.1 0.2 -0.1
v -0.1 0.3 -0.1
v -0.1 1.2 -0.1
v -0.1 1.3 -0.1
v 0.1 0 -0.1
v 0.1 0.2 -0.1
v 0.1 0.3 -0.1
v 0.1 1.2 -0.1
v 0.1 1.3 -0.1
v 0.2 0 -0.1
v 0.2 0.2 -0.1
v 0.2 0.3 -0.1
v 0.2 1.2 -0.1
v 0.2 1.3 -0.1
v -0.4 0.3 -0.2
v -0.4 0.7 -0.2
v -0.3 0.3 -0.2
v -0.3 0.7 -0.2
v -0.3 1.1 -0.2
v -0.3 1.2 -0.2
v -0.2 1.1 -0.2
v -0.2 1.2 -0.2
v -0.1 1.2 -0.2
v -0.1 1.3 -0.2
v 0.1 1.2 -0.2
v 0.1 1.3 -0.2
v 0.2 1.1 -0.2
v 0.2 1.2 -0.2
v 0.3 0.3 -0.2
v 0.3 0.7 -0.2
v 0.3 1.1 -0.2
v 0.3 1.2 -0.2
v 0.4 0.3 -0.2
v 0.4 0.7 -0.2
v -0.3 0.3 -0.3
v -0.3 0.7 -0.3
v -0.3 0.8 -0.3
v -0.3 1 -0.3
v -0.3 1.1 -0.3
v -0.2 0.5 -0.3
v -0.2 0.7 -0.3
v -0.2 0.8 -0.3
v -0.2 1 -0.3
v -0.2 1.1 -0.3
v -0.2 1.2 -0.3
v -0.1 0.3 -0.3
v -0.1 0.5 -0.3
v -0.1 0.6 -0.3
v -0.1 1.1 -0.3
v -0.1 1.2 -0.3
v 0 0.5 -0.3
v 0 0.6 -0.3
v 0.1 0.3 -0.3
v 0.1 0.5 -0.3
v 0.1 0.7 -0.3
v 0.1 1.1 -0.3
v 0.1 1.2 -0.3
v 0.2 0.6 -0.3
v 0.2 0.7 -0.3
v 0.2 1 -0.3
v 0.2 1.1 -0.3
v 0.2 1.2 -0.3
v 0.3 0.3 -0.3
v 0.3 0.6 -0.3
v 0.3 1 -0.3
v 0.3 1.1 -0.3
v -0.3 0.8 -0.4
v -0.3 1 -0.4
v -0.2 0.5 -0.4
v -0.2 0.8 -0.4
v -0.2 1 -0.4
v -0.2 1.1 -0.4
v -0.1 0.3 -0.4
v -0.1 0.5 -0.4
v -0.1 0.6 -0.4
v -0.1 1.1 -0.4
v -0.1 1.2 -0.4
v 0 0.5 -0.4
v 0 0.6 -0.4
v 0.1 0.3 -0.4
v 0.1 0.5 -0.4
v 0.1 0.7 -0.4
v 0.1 1.1 -0.4
v 0.1 1.2 -0.4
v 0.2 0.6 -0.4
v 0.2 0.7 -0.4
v 0.2 1 -0.4
v 0.2 1.1 -0.4
v 0.3 0.6 -0.4
v 0.3 1 -0.4
v -0.2 0 0
v -0.1 0 0
v 0.1 0 0
v 0.2 0 0
v -0.2 0 -0.1
v -0.1 0 -0.1
v 0.1 0 -0.1
v 0.2 0 -0.1
v -0.3 0.3 0.2
v 0.3 0.3 0.2
v -0.2 0.3 0.1
v 0.2 0.3 0.1
v -0.4 0.3 0
v -0.3 0.3 0
v -0.2 0.3 0
v -0.1 0.3 0
v 0.1 0.3 0
v 0.2 0.3 0
v 0.3 0.3 0
v 0.4 0.3 0
v -0.2 0.3 -0.1
v -0.1 0.3 -0.1
v 0.1 0.3 -0.1
v 0.2 0.3 -0.1
v -0.4 0.3 -0.2
v -0.3 0.3 -0.2
v -0.2 0.3 -0.2
v 0.2 0.3 -0.2
v 0.3 0.3 -0.2
v 0.4 0.3 -0.2
v -0.3 0.3 -0.3
v -0.1 0.3 -0.3
v 0.1 0.3 -0.3
v 0.3 0.3 -0.3
v -0.1 0.3 -0.4
v 0.1 0.3 -0.4
v -0.2 0.5 -0.3
v -0.1 0.5 -0.3
v -0.2 0.5 -0.4
v -0.1 0.5 -0.4
v -0.1 0.6 -0.3
v 0 0.6 -0.3
v 0.2 0.6 -0.3
v 0.3 0.6 -0.3
v -0.1 0.6 -0.4
v 0 0.6 -0.4
v 0.2 0.6 -0.4
v 0.3 0.6 -0.4
v 0.1 0.7 -0.3
v 0.2 0.7 -0.3
v 0.1 0.7 -0.4
v 0.2 0.7 -0.4
v -0.3 0.8 -0.3
v -0.2 0.8 -0.3
v -0.3 0.8 -0.4
v -0.2 0.8 -0.4
v -0.1 0.5 -0.3
v 0 0.5 -0.3
v -0.1 0.5 -0.4
v 0 0.5 -0.4
v -0.4 0.7 0
v -0.3 0.7 0
v 0.3 0.7 0
v 0.4 0.7 0
v -0.4 0.7 -0.2
v -0.3 0.7 -0.2
v 0.3 0.7 -0.2
v 0.4 0.7 -0.2
v -0.3 1 -0.3
v -0.2 1 -0.3
v 0.2 1 -0.3
v 0.3 1 -0.3
v -0.3 1 -0.4
v -0.2 1 -0.4
v 0.2 1 -0.4
v 0.3 1 -0.4
v -0.3 1.1 -0.2
v -0.2 1.1 -0.2
v 0.2 1.1 -0.2
v 0.3 1.1 -0.2
v -0.3 1.1 -0.3
v -0.2 1.1 -0.3
v -0.1 1.1 -0.3
v 0.1 1.1 -0.3
v 0.2 1.1 -0.3
v 0.3 1.1 -0.3
v -0.2 1.1 -0.4
v -0.1 1.1 -0.4
v 0.1 1.1 -0.4
v 0.2 1.1 -0.4
v -0.3 1.2 0.2
v -0.1 1.2 0.2
v 0.1 1.2 0.2
v 0.3 1.2 0.2
v -0.2 1.2 0.1
v -0.1 1.2 0.1
v 0.1 1.2 0.1
v 0.2 1.2 0.1
v -0.2 1.2 -0.1
v -0.1 1.2 -0.1
v 0.1 1.2 -0.1
v 0.2 1.2 -0.1
v -0.3 1.2 -0.2
v -0.2 1.2 -0.2
v -0.1 1.2 -0.2
v 0.1 1.2 -0.2
v 0.2 1.2 -0.2
v 0.3 1.2 -0.2
v -0.2 1.2 -0.3
v -0.1 1.2 -0.3
v 0.1 1.2 -0.3
v 0.2 1.2 -0.3
v -0.1 1.2 -0.4
v 0.1 1.2 -0.4
v -0.1 1.3 0.2
v 0.1 1.3 0.2
v -0.2 1.3 0.1
v -0.1 1.3 0.1
v 0.1 1.3 0.1
v 0.2 1.3 0.1
v -0.2 1.3 -0.1
v -0.1 1.3 -0.1
v 0.1 1.3 -0.1
v 0.2 1.3 -0.1
v -0.1 1.3 -0.2
v 0.1 1.3 -0.2

# faces
f 3/5/1 2/5/1 1/5/1
f 4/5/1 2/5/1 3/5/1
f 9/11/1 6/11/1 5/11/1
f 10/11/1 6/11/1 9/11/1
f 11/11/1 8/11/1 7/11/1
f 12/11/1 8/11/1 11/11/1
f 13/5/1 10/5/1 9/5/1
f 13/5/1 11/5/1 10/5/1
f 14/7/1 12/7/1 11/7/1
f 14/5/1 11/5/1 13/5/1
f 15/7/1 12/7/1 14/7/1
f 17/5/1 13/5/1 9/5/1
f 18/7/1 15/7/1 14/7/1
f 18/5/1 13/5/1 17/5/1
f 18/7/1 16/7/1 15/7/1
f 18/7/1 14/7/1 13/7/1
f 19/7/1 16/7/1 18/7/1
f 20/7/1 16/7/1 19/7/1
f 21/5/1 17/5/1 9/5/1
f 22/7/1 18/7/1 17/7/1
f 22/5/1 17/5/1 21/5/1
f 22/7/1 19/7/1 18/7/1
f 23/7/1 19/7/1 22/7/1
f 24/7/1 19/7/1 23/7/1
f 25/7/1 22/7/1 21/7/1
f 25/7/1 23/7/1 22/7/1
f 26/7/1 23/7/1 25/7/1
f 29/7/1 28/7/1 27/7/1
f 30/7/1 28/7/1 29/7/1
f 31/9/1 30/9/1 29/9/1
f 32/9/1 30/9/1 31/9/1
f 35/7/1 34/7/1 33/7/1
f 36/7/1 34/7/1 35/7/1
f 37/7/1 34/7/1 36/7/1
f 41/7/1 39/7/1 38/7/1
f 42/7/1 39/7/1 41/7/1
f 45/7/1 41/7/1 40/7/1
f 46/7/1 41/7/1 45/7/1
f 47/7/1 44/7/1 43/7/1
f 48/7/1 44/7/1 47/7/1
f 51/4/1 50/4/1 49/4/1
f 52/4/1 50/4/1 51/4/1
f 59/7/1 54/7/1 53/7/1
f 60/7/1 54/7/1 59/7/1
f 61/7/1 56/7/1 55/7/1
f 62/7/1 56/7/1 61/7/1
f 63/7/1 58/7/1 57/7/1
f 64/7/1 58/7/1 63/7/1
f 67/7/1 66/7/1 65/7/1
f 68/7/1 66/7/1 67/7/1
f 71/7/1 70/7/1 69/7/1
f 72/7/1 70/7/1 71/7/1
f 73/9/1 72/9/1 71/9/1
f 74/9/1 72/9/1 73/9/1
f 77/7/1 76/7/1 75/7/1
f 78/7/1 76/7/1 77/7/1
f 79/7/2 80/7/2 81/7/2
f 81/7/2 80/7/2 82/7/2
f 81/9/2 82/9/2 83/9/2
f 83/9/2 82/9/2 84/9/2
f 85/7/2 86/7/2 87/7/2
f 87/7/2 86/7/2 88/7/2
f 89/4/2 90/4/2 91/4/2
f 91/4/2 90/4/2 92/4/2
f 91/7/2 92/7/2 93/7/2
f 93/7/2 92/7/2 94/7/2
f 95/7/2 96/7/2 101/7/2
f 101/7/2 96/7/2 102/7/2
f 97/7/2 98/7/2 103/7/2
f 103/7/2 98/7/2 104/7/2
f 99/7/2 100/7/2 105/7/2
f 105/7/2 100/7/2 106/7/2
f 107/7/2 108/7/2 109/7/2
f 109/7/2 108/7/2 110/7/2
f 109/9/2 110/9/2 111/9/2
f 111/9/2 110/9/2 112/9/2
f 113/7/2 114/7/2 116/7/2
f 116/7/2 114/7/2 117/7/2
f 115/7/2 116/7/2 120/7/2
f 120/7/2 116/7/2 121/7/2
f 118/7/2 119/7/2 122/7/2
f 122/7/2 119/7/2 123/7/2
f 126/11/2 127/11/2 128/11/2
f 124/11/2 125/11/2 130/11/2
f 130/11/2 125/11/2 131/11/2
f 126/11/2 128/11/2 132/11/2
f 128/7/2 129/7/2 133/7/2
f 132/11/2 128/11/2 133/11/2
f 131/5/2 132/5/2 134/5/2
f 130/5/2 131/5/2 134/5/2
f 132/7/2 133/7/2 135/7/2
f 134/5/2 132/5/2 135/5/2
f 130/5/2 134/5/2 136/5/2
f 134/7/2 135/7/2 137/7/2
f 136/5/2 134/5/2 137/5/2
f 133/7/2 129/7/2 138/7/2
f 137/7/2 135/7/2 138/7/2
f 135/7/2 133/7/2 138/7/2
f 138/7/2 129/7/2 139/7/2
f 130/5/2 136/5/2 140/5/2
f 136/7/2 137/7/2 141/7/2
f 140/5/2 136/5/2 141/5/2
f 137/7/2 138/7/2 141/7/2
f 141/7/2 138/7/2 142/7/2
f 142/7/2 138/7/2 143/7/2
f 140/7/2 141/7/2 144/7/2
f 141/7/2 142/7/2 144/7/2
f 144/7/2 142/7/2 145/7/2
f 146/5/2 147/5/2 148/5/2
f 148/5/2 147/5/2 149/5/2
f 154/5/3 152/5/3 151/5/3
f 155/5/3 152/5/3 154/5/3
f 156/5/3 154/5/3 151/5/3
f 156/11/3 155/11/3 154/11/3
f 157/5/3 152/5/3 155/5/3
f 157/11/3 155/11/3 156/11/3
f 158/7/3 153/7/3 152/7/3
f 160/5/3 156/5/3 151/5/3
f 160/5/3 157/5/3 156/5/3
f 161/5/3 152/5/3 157/5/3
f 161/5/3 157/5/3 160/5/3
f 162/7/3 159/7/3 158/7/3
f 162/7/3 158/7/3 152/7/3
f 163/7/3 159/7/3 162/7/3
f 164/5/3 160/5/3 151/5/3
f 164/11/3 161/11/3 160/11/3
f 165/5/3 152/5/3 161/5/3
f 165/11/3 161/11/3 164/11/3
f 166/11/3 151/11/3 150/11/3
f 167/5/3 164/5/3 151/5/3
f 167/11/3 151/11/3 166/11/3
f 167/5/3 165/5/3 164/5/3
f 168/5/3 152/5/3 165/5/3
f 168/5/3 165/5/3 167/5/3
f 168/7/3 162/7/3 152/7/3
f 169/7/3 162/7/3 168/7/3
f 172/7/3 171/7/3 170/7/3
f 173/7/3 171/7/3 172/7/3
f 176/7/3 175/7/3 174/7/3
f 177/7/3 175/7/3 176/7/3
f 180/5/3 179/5/3 178/5/3
f 181/5/3 179/5/3 180/5/3
f 185/7/3 183/7/3 182/7/3
f 186/9/3 184/9/3 183/9/3
f 186/7/3 183/7/3 185/7/3
f 187/9/3 184/9/3 186/9/3
f 191/7/3 189/7/3 188/7/3
f 192/9/3 190/9/3 189/9/3
f 192/7/3 189/7/3 191/7/3
f 193/9/3 190/9/3 192/9/3
f 196/5/3 195/5/3 194/5/3
f 197/5/3 195/5/3 196/5/3
f 198/7/4 199/7/4 203/7/4
f 199/9/4 200/9/4 204/9/4
f 203/7/4 199/7/4 204/7/4
f 204/9/4 200/9/4 205/9/4
f 201/7/4 202/7/4 206/7/4
f 206/7/4 202/7/4 207/7/4
f 208/7/4 209/7/4 213/7/4
f 209/9/4 210/9/4 214/9/4
f 213/7/4 209/7/4 214/7/4
f 214/9/4 210/9/4 215/9/4
f 211/7/4 212/7/4 216/7/4
f 216/7/4 212/7/4 217/7/4
f 218/5/4 219/5/4 220/5/4
f 220/5/4 219/5/4 221/5/4
f 222/7/4 223/7/4 224/7/4
f 224/7/4 223/7/4 225/7/4
f 226/7/4 227/7/4 228/7/4
f 228/7/4 227/7/4 229/7/4
f 230/7/4 231/7/4 234/7/4
f 234/7/4 231/7/4 235/7/4
f 232/5/4 233/5/4 236/5/4
f 236/5/4 233/5/4 237/5/4
f 238/11/4 239/11/4 243/11/4
f 239/7/4 240/7/4 244/7/4
f 243/11/4 239/11/4 244/11/4
f 244/7/4 240/7/4 245/7/4
f 241/7/4 242/7/4 246/7/4
f 246/7/4 242/7/4 247/7/4
f 238/11/4 243/11/4 249/11/4
f 249/11/4 243/11/4 250/11/4
f 247/7/4 248/7/4 252/7/4
f 252/7/4 248/7/4 253/7/4
f 250/11/4 251/11/4 254/11/4
f 254/11/4 251/11/4 255/11/4
f 256/11/4 257/11/4 261/11/4
f 257/11/4 258/11/4 261/11/4
f 261/11/4 258/11/4 262/11/4
f 259/7/4 260/7/4 264/7/4
f 264/7/4 260/7/4 265/7/4
f 256/11/4 261/11/4 266/11/4
f 266/11/4 261/11/4 267/11/4
f 263/7/4 264/7/4 268/7/4
f 268/7/4 264/7/4 269/7/4
f 270/7/4 271/7/4 273/7/4
f 273/7/4 271/7/4 274/7/4
f 272/7/4 273/7/4 277/7/4
f 274/7/4 275/7/4 277/7/4
f 273/7/4 274/7/4 277/7/4
f 277/7/4 275/7/4 278/7/4
f 278/7/4 275/7/4 279/7/4
f 276/4/4 277/4/4 281/4/4
f 279/7/4 280/7/4 282/7/4
f 278/7/4 279/7/4 282/7/4
f 276/4/4 281/4/4 283/4/4
f 281/7/4 282/7/4 284/7/4
f 283/4/4 281/4/4 284/4/4
f 282/7/4 280/7/4 285/7/4
f 284/7/4 282/7/4 285/7/4
f 285/7/4 280/7/4 286/7/4
f 286/7/4 280/7/4 287/7/4
f 285/7/4 286/7/4 289/7/4
f 289/7/4 286/7/4 290/7/4
f 290/7/4 286/7/4 291/7/4
f 288/7/4 289/7/4 292/7/4
f 289/7/4 290/7/4 292/7/4
f 292/7/4 290/7/4 293/7/4
f 298/7/5 295/7/5 294/7/5
f 299/7/5 295/7/5 298/7/5
f 300/7/5 297/7/5 296/7/5
f 301/7/5 297/7/5 300/7/5
f 304/11/5 303/11/5 302/11/5
f 305/11/5 303/11/5 304/11/5
f 307/11/5 304/11/5 302/11/5
f 308/10/5 305/10/5 304/10/5
f 308/11/5 304/11/5 307/11/5
f 309/10/5 305/10/5 308/10/5
f 310/10/5 305/10/5 309/10/5
f 311/11/5 303/11/5 305/11/5
f 311/10/5 305/10/5 310/10/5
f 312/11/5 303/11/5 311/11/5
f 314/11/5 308/11/5 307/11/5
f 315/10/5 310/10/5 309/10/5
f 316/10/5 310/10/5 315/10/5
f 317/11/5 312/11/5 311/11/5
f 318/5/5 307/5/5 306/5/5
f 319/11/5 314/11/5 307/11/5
f 319/5/5 307/5/5 318/5/5
f 320/10/5 317/10/5 316/10/5
f 320/11/5 314/11/5 319/11/5
f 320/10/5 316/10/5 315/10/5
f 320/10/5 315/10/5 314/10/5
f 321/11/5 312/11/5 317/11/5
f 321/10/5 317/10/5 320/10/5
f 322/5/5 313/5/5 312/5/5
f 322/11/5 312/11/5 321/11/5
f 323/5/5 313/5/5 322/5/5
f 324/11/5 321/11/5 320/11/5
f 324/11/5 322/11/5 321/11/5
f 324/11/5 320/11/5 319/11/5
f 325/11/5 322/11/5 324/11/5
f 326/11/5 322/11/5 325/11/5
f 327/11/5 322/11/5 326/11/5
f 328/4/5 326/4/5 325/4/5
f 329/4/5 326/4/5 328/4/5
f 332/7/5 331/7/5 330/7/5
f 333/7/5 331/7/5 332/7/5
f 338/7/5 335/7/5 334/7/5
f 339/7/5 335/7/5 338/7/5
f 340/7/5 337/7/5 336/7/5
f 341/7/5 337/7/5 340/7/5
f 344/7/5 343/7/5 342/7/5
f 345/7/5 343/7/5 344/7/5
f 348/7/5 347/7/5 346/7/5
f 349/7/5 347/7/5 348/7/5
f 350/4/6 351/4/6 352/4/6
f 352/4/6 351/4/6 353/4/6
f 354/5/6 355/5/6 358/5/6
f 358/5/6 355/5/6 359/5/6
f 356/5/6 357/5/6 360/5/6
f 360/5/6 357/5/6 361/5/6
f 362/7/6 363/7/6 366/7/6
f 366/7/6 363/7/6 367/7/6
f 364/7/6 365/7/6 368/7/6
f 368/7/6 365/7/6 369/7/6
f 370/7/6 371/7/6 374/7/6
f 374/7/6 371/7/6 375/7/6
f 372/7/6 373/7/6 378/7/6
f 378/7/6 373/7/6 379/7/6
f 375/7/6 376/7/6 380/7/6
f 380/7/6 376/7/6 381/7/6
f 377/7/6 378/7/6 382/7/6
f 382/7/6 378/7/6 383/7/6
f 384/7/6 385/7/6 388/7/6
f 388/7/6 385/7/6 389/7/6
f 386/7/6 387/7/6 390/7/6
f 390/7/6 387/7/6 391/7/6
f 384/7/6 388/7/6 392/7/6
f 391/7/6 387/7/6 395/7/6
f 392/7/6 393/7/6 396/7/6
f 384/7/6 392/7/6 396/7/6
f 396/7/6 393/7/6 397/7/6
f 397/7/6 393/7/6 398/7/6
f 394/7/6 395/7/6 399/7/6
f 395/7/6 387/7/6 400/7/6
f 399/7/6 395/7/6 400/7/6
f 400/7/6 387/7/6 401/7/6
f 397/7/6 398/7/6 402/7/6
f 398/7/6 399/7/6 402/7/6
f 399/7/6 400/7/6 402/7/6
f 402/7/6 400/7/6 403/7/6
f 403/7/6 400/7/6 404/7/6
f 404/7/6 400/7/6 405/7/6
f 403/7/6 404/7/6 406/7/6
f 406/7/6 404/7/6 407/7/6
f 408/7/6 409/7/6 411/7/6
f 411/7/6 409/7/6 412/7/6
f 410/7/6 411/7/6 414/7/6
f 412/7/6 413/7/6 414/7/6
f 411/7/6 412/7/6 414/7/6
f 414/7/6 413/7/6 415/7/6
f 415/7/6 413/7/6 416/7/6
f 416/7/6 413/7/6 417/7/6
f 415/7/6 416/7/6 418/7/6
f 418/7/6 416/7/6 419/7/6
