# MagicaVoxel @ Ephtracy

# group
o 

# material
mtllib CHR_Man2.mtl
usemtl palette

# normals
vn -1 0 0
vn 1 0 0
vn 0 0 1
vn 0 0 -1
vn 0 -1 0
vn 0 1 0

# texcoords
vt 0.00195313 0.5
vt 0.00585938 0.5
vt 0.0332031 0.5
vt 0.0410156 0.5
vt 0.0683594 0.5
vt 0.841797 0.5
vt 0.919922 0.5
vt 0.935547 0.5
vt 0.994141 0.5

# verts
v -0.4 0.3 0
v -0.4 0.3 -0.2
v -0.4 0.6 0
v -0.4 0.6 -0.2
v -0.4 0.7 0
v -0.4 0.7 -0.2
v -0.3 0.3 0.2
v -0.3 0.3 0
v -0.3 0.3 -0.2
v -0.3 0.3 -0.3
v -0.3 0.6 0
v -0.3 0.6 -0.2
v -0.3 0.7 0.2
v -0.3 0.7 0
v -0.3 0.7 -0.2
v -0.3 0.7 -0.3
v -0.3 0.9 0.2
v -0.3 0.9 0.1
v -0.3 0.9 -0.1
v -0.3 0.9 -0.3
v -0.3 1 0
v -0.3 1 -0.1
v -0.3 1.1 0.2
v -0.3 1.1 0.1
v -0.3 1.2 0.2
v -0.3 1.2 -0.3
v -0.2 0 0
v -0.2 0 -0.1
v -0.2 0.1 0
v -0.2 0.1 -0.1
v -0.2 0.2 0
v -0.2 0.2 -0.1
v -0.2 0.3 0
v -0.2 0.3 -0.1
v 0.1 0 0
v 0.1 0 -0.1
v 0.1 0.1 0
v 0.1 0.1 -0.1
v 0.1 0.2 0
v 0.1 0.2 -0.1
v 0.1 0.3 0
v 0.1 0.3 -0.1
v -0.1 0 0
v -0.1 0 -0.1
v -0.1 0.1 0
v -0.1 0.1 -0.1
v -0.1 0.2 0
v -0.1 0.2 -0.1
v -0.1 0.3 0
v -0.1 0.3 -0.1
v 0.2 0 0
v 0.2 0 -0.1
v 0.2 0.1 0
v 0.2 0.1 -0.1
v 0.2 0.2 0
v 0.2 0.2 -0.1
v 0.2 0.3 0
v 0.2 0.3 -0.1
v 0.3 0.3 0.2
v 0.3 0.3 0
v 0.3 0.3 -0.2
v 0.3 0.3 -0.3
v 0.3 0.6 0
v 0.3 0.6 -0.2
v 0.3 0.7 0.2
v 0.3 0.7 0
v 0.3 0.7 -0.2
v 0.3 0.7 -0.3
v 0.3 0.9 0.2
v 0.3 0.9 0.1
v 0.3 0.9 -0.1
v 0.3 0.9 -0.3
v 0.3 1 0
v 0.3 1 -0.1
v 0.3 1.1 0.2
v 0.3 1.1 0.1
v 0.3 1.2 0.2
v 0.3 1.2 -0.3
v 0.4 0.3 0
v 0.4 0.3 -0.2
v 0.4 0.6 0
v 0.4 0.6 -0.2
v 0.4 0.7 0
v 0.4 0.7 -0.2
v -0.3 0.3 0.2
v -0.3 0.7 0.2
v -0.3 0.9 0.2
v -0.3 1.1 0.2
v -0.3 1.2 0.2
v -0.2 0.8 0.2
v -0.2 0.9 0.2
v -0.2 1 0.2
v -0.1 0.9 0.2
v -0.1 1 0.2
v 0.1 0.9 0.2
v 0.1 1 0.2
v 0.2 0.8 0.2
v 0.2 0.9 0.2
v 0.2 1 0.2
v 0.3 0.3 0.2
v 0.3 0.7 0.2
v 0.3 0.9 0.2
v 0.3 1.1 0.2
v 0.3 1.2 0.2
v -0.4 0.3 0
v -0.4 0.6 0
v -0.4 0.7 0
v -0.3 0.3 0
v -0.3 0.6 0
v -0.3 0.7 0
v -0.2 0 0
v -0.2 0.1 0
v -0.2 0.2 0
v -0.2 0.3 0
v -0.1 0 0
v -0.1 0.1 0
v -0.1 0.2 0
v -0.1 0.3 0
v 0.1 0 0
v 0.1 0.1 0
v 0.1 0.2 0
v 0.1 0.3 0
v 0.2 0 0
v 0.2 0.1 0
v 0.2 0.2 0
v 0.2 0.3 0
v 0.3 0.3 0
v 0.3 0.6 0
v 0.3 0.7 0
v 0.4 0.3 0
v 0.4 0.6 0
v 0.4 0.7 0
v -0.2 0 -0.1
v -0.2 0.1 -0.1
v -0.2 0.2 -0.1
v -0.2 0.3 -0.1
v -0.1 0 -0.1
v -0.1 0.1 -0.1
v -0.1 0.2 -0.1
v -0.1 0.3 -0.1
v 0.1 0 -0.1
v 0.1 0.1 -0.1
v 0.1 0.2 -0.1
v 0.1 0.3 -0.1
v 0.2 0 -0.1
v 0.2 0.1 -0.1
v 0.2 0.2 -0.1
v 0.2 0.3 -0.1
v -0.4 0.3 -0.2
v -0.4 0.6 -0.2
v -0.4 0.7 -0.2
v -0.3 0.3 -0.2
v -0.3 0.6 -0.2
v -0.3 0.7 -0.2
v 0.3 0.3 -0.2
v 0.3 0.6 -0.2
v 0.3 0.7 -0.2
v 0.4 0.3 -0.2
v 0.4 0.6 -0.2
v 0.4 0.7 -0.2
v -0.3 0.3 -0.3
v -0.3 0.7 -0.3
v -0.3 0.9 -0.3
v -0.3 1.2 -0.3
v -0.2 0.8 -0.3
v -0.2 0.9 -0.3
v 0.2 0.8 -0.3
v 0.2 0.9 -0.3
v 0.3 0.3 -0.3
v 0.3 0.7 -0.3
v 0.3 0.9 -0.3
v 0.3 1.2 -0.3
v -0.2 0 0
v -0.1 0 0
v 0.1 0 0
v 0.2 0 0
v -0.2 0 -0.1
v -0.1 0 -0.1
v 0.1 0 -0.1
v 0.2 0 -0.1
v -0.3 0.3 0.2
v 0.3 0.3 0.2
v -0.2 0.3 0.1
v 0.2 0.3 0.1
v -0.4 0.3 0
v -0.3 0.3 0
v -0.2 0.3 0
v -0.1 0.3 0
v 0.1 0.3 0
v 0.2 0.3 0
v 0.3 0.3 0
v 0.4 0.3 0
v -0.2 0.3 -0.1
v -0.1 0.3 -0.1
v 0.1 0.3 -0.1
v 0.2 0.3 -0.1
v -0.4 0.3 -0.2
v -0.3 0.3 -0.2
v -0.2 0.3 -0.2
v 0.2 0.3 -0.2
v 0.3 0.3 -0.2
v 0.4 0.3 -0.2
v -0.3 0.3 -0.3
v 0.3 0.3 -0.3
v -0.4 0.7 0
v -0.3 0.7 0
v 0.3 0.7 0
v 0.4 0.7 0
v -0.4 0.7 -0.2
v -0.3 0.7 -0.2
v 0.3 0.7 -0.2
v 0.4 0.7 -0.2
v -0.3 1.2 0.2
v 0.3 1.2 0.2
v -0.3 1.2 -0.3
v 0.3 1.2 -0.3

# faces
f 3/3/1 2/3/1 1/3/1
f 4/3/1 2/3/1 3/3/1
f 5/9/1 4/9/1 3/9/1
f 6/9/1 4/9/1 5/9/1
f 11/9/1 8/9/1 7/9/1
f 12/9/1 10/9/1 9/9/1
f 13/9/1 11/9/1 7/9/1
f 14/9/1 11/9/1 13/9/1
f 15/9/1 10/9/1 12/9/1
f 16/9/1 10/9/1 15/9/1
f 17/4/1 14/4/1 13/4/1
f 18/4/1 14/4/1 17/4/1
f 19/3/1 15/3/1 14/3/1
f 19/3/1 16/3/1 15/3/1
f 20/3/1 16/3/1 19/3/1
f 21/4/1 14/4/1 18/4/1
f 21/3/1 19/3/1 14/3/1
f 22/4/1 20/4/1 19/4/1
f 22/3/1 19/3/1 21/3/1
f 23/3/1 18/3/1 17/3/1
f 24/4/1 21/4/1 18/4/1
f 24/3/1 18/3/1 23/3/1
f 24/4/1 22/4/1 21/4/1
f 25/4/1 24/4/1 23/4/1
f 26/4/1 20/4/1 22/4/1
f 26/4/1 24/4/1 25/4/1
f 26/4/1 22/4/1 24/4/1
f 29/9/1 28/9/1 27/9/1
f 30/9/1 28/9/1 29/9/1
f 31/8/1 30/8/1 29/8/1
f 32/8/1 30/8/1 31/8/1
f 33/7/1 32/7/1 31/7/1
f 34/7/1 32/7/1 33/7/1
f 37/9/1 36/9/1 35/9/1
f 38/9/1 36/9/1 37/9/1
f 39/8/1 38/8/1 37/8/1
f 40/8/1 38/8/1 39/8/1
f 41/7/1 40/7/1 39/7/1
f 42/7/1 40/7/1 41/7/1
f 43/9/2 44/9/2 45/9/2
f 45/9/2 44/9/2 46/9/2
f 45/8/2 46/8/2 47/8/2
f 47/8/2 46/8/2 48/8/2
f 47/7/2 48/7/2 49/7/2
f 49/7/2 48/7/2 50/7/2
f 51/9/2 52/9/2 53/9/2
f 53/9/2 52/9/2 54/9/2
f 53/8/2 54/8/2 55/8/2
f 55/8/2 54/8/2 56/8/2
f 55/7/2 56/7/2 57/7/2
f 57/7/2 56/7/2 58/7/2
f 59/9/2 60/9/2 63/9/2
f 61/9/2 62/9/2 64/9/2
f 59/9/2 63/9/2 65/9/2
f 65/9/2 63/9/2 66/9/2
f 64/9/2 62/9/2 67/9/2
f 67/9/2 62/9/2 68/9/2
f 65/4/2 66/4/2 69/4/2
f 69/4/2 66/4/2 70/4/2
f 66/3/2 67/3/2 71/3/2
f 67/3/2 68/3/2 71/3/2
f 71/3/2 68/3/2 72/3/2
f 70/4/2 66/4/2 73/4/2
f 66/3/2 71/3/2 73/3/2
f 71/4/2 72/4/2 74/4/2
f 73/3/2 71/3/2 74/3/2
f 69/3/2 70/3/2 75/3/2
f 70/4/2 73/4/2 76/4/2
f 75/3/2 70/3/2 76/3/2
f 73/4/2 74/4/2 76/4/2
f 75/4/2 76/4/2 77/4/2
f 74/4/2 72/4/2 78/4/2
f 77/4/2 76/4/2 78/4/2
f 76/4/2 74/4/2 78/4/2
f 79/3/2 80/3/2 81/3/2
f 81/3/2 80/3/2 82/3/2
f 81/9/2 82/9/2 83/9/2
f 83/9/2 82/9/2 84/9/2
f 90/4/3 87/4/3 86/4/3
f 91/3/3 88/3/3 87/3/3
f 91/4/3 87/4/3 90/4/3
f 92/3/3 88/3/3 91/3/3
f 93/3/3 91/3/3 90/3/3
f 93/9/3 92/9/3 91/9/3
f 94/3/3 88/3/3 92/3/3
f 94/9/3 92/9/3 93/9/3
f 95/3/3 93/3/3 90/3/3
f 95/3/3 94/3/3 93/3/3
f 96/3/3 88/3/3 94/3/3
f 96/3/3 94/3/3 95/3/3
f 97/4/3 90/4/3 86/4/3
f 97/3/3 95/3/3 90/3/3
f 98/9/3 96/9/3 95/9/3
f 98/3/3 95/3/3 97/3/3
f 99/3/3 88/3/3 96/3/3
f 99/9/3 96/9/3 98/9/3
f 100/9/3 86/9/3 85/9/3
f 101/4/3 98/4/3 97/4/3
f 101/9/3 86/9/3 100/9/3
f 101/4/3 97/4/3 86/4/3
f 102/3/3 99/3/3 98/3/3
f 102/4/3 98/4/3 101/4/3
f 103/3/3 88/3/3 99/3/3
f 103/3/3 99/3/3 102/3/3
f 103/4/3 89/4/3 88/4/3
f 104/4/3 89/4/3 103/4/3
f 108/3/3 106/3/3 105/3/3
f 109/9/3 107/9/3 106/9/3
f 109/3/3 106/3/3 108/3/3
f 110/9/3 107/9/3 109/9/3
f 115/9/3 112/9/3 111/9/3
f 116/8/3 113/8/3 112/8/3
f 116/9/3 112/9/3 115/9/3
f 117/7/3 114/7/3 113/7/3
f 117/8/3 113/8/3 116/8/3
f 118/7/3 114/7/3 117/7/3
f 123/9/3 120/9/3 119/9/3
f 124/8/3 121/8/3 120/8/3
f 124/9/3 120/9/3 123/9/3
f 125/7/3 122/7/3 121/7/3
f 125/8/3 121/8/3 124/8/3
f 126/7/3 122/7/3 125/7/3
f 130/3/3 128/3/3 127/3/3
f 131/9/3 129/9/3 128/9/3
f 131/3/3 128/3/3 130/3/3
f 132/9/3 129/9/3 131/9/3
f 133/9/4 134/9/4 137/9/4
f 134/8/4 135/8/4 138/8/4
f 137/9/4 134/9/4 138/9/4
f 135/7/4 136/7/4 139/7/4
f 138/8/4 135/8/4 139/8/4
f 139/7/4 136/7/4 140/7/4
f 141/9/4 142/9/4 145/9/4
f 142/8/4 143/8/4 146/8/4
f 145/9/4 142/9/4 146/9/4
f 143/7/4 144/7/4 147/7/4
f 146/8/4 143/8/4 147/8/4
f 147/7/4 144/7/4 148/7/4
f 149/3/4 150/3/4 152/3/4
f 150/9/4 151/9/4 153/9/4
f 152/3/4 150/3/4 153/3/4
f 153/9/4 151/9/4 154/9/4
f 155/3/4 156/3/4 158/3/4
f 156/9/4 157/9/4 159/9/4
f 158/3/4 156/3/4 159/3/4
f 159/9/4 157/9/4 160/9/4
f 162/3/4 163/3/4 165/3/4
f 163/4/4 164/4/4 166/4/4
f 165/3/4 163/3/4 166/3/4
f 162/3/4 165/3/4 167/3/4
f 165/4/4 166/4/4 167/4/4
f 166/4/4 164/4/4 168/4/4
f 167/4/4 166/4/4 168/4/4
f 161/9/4 162/9/4 169/9/4
f 162/3/4 167/3/4 170/3/4
f 169/9/4 162/9/4 170/9/4
f 167/3/4 168/3/4 170/3/4
f 168/4/4 164/4/4 171/4/4
f 170/3/4 168/3/4 171/3/4
f 171/4/4 164/4/4 172/4/4
f 177/9/5 174/9/5 173/9/5
f 178/9/5 174/9/5 177/9/5
f 179/9/5 176/9/5 175/9/5
f 180/9/5 176/9/5 179/9/5
f 183/9/5 182/9/5 181/9/5
f 184/9/5 182/9/5 183/9/5
f 186/9/5 183/9/5 181/9/5
f 187/8/5 184/8/5 183/8/5
f 187/9/5 183/9/5 186/9/5
f 188/8/5 184/8/5 187/8/5
f 189/8/5 184/8/5 188/8/5
f 190/9/5 182/9/5 184/9/5
f 190/8/5 184/8/5 189/8/5
f 191/9/5 182/9/5 190/9/5
f 193/9/5 187/9/5 186/9/5
f 194/8/5 189/8/5 188/8/5
f 195/8/5 189/8/5 194/8/5
f 196/9/5 191/9/5 190/9/5
f 197/3/5 186/3/5 185/3/5
f 198/9/5 193/9/5 186/9/5
f 198/3/5 186/3/5 197/3/5
f 199/8/5 196/8/5 195/8/5
f 199/9/5 193/9/5 198/9/5
f 199/8/5 195/8/5 194/8/5
f 199/8/5 194/8/5 193/8/5
f 200/9/5 191/9/5 196/9/5
f 200/8/5 196/8/5 199/8/5
f 201/3/5 192/3/5 191/3/5
f 201/9/5 191/9/5 200/9/5
f 202/3/5 192/3/5 201/3/5
f 203/9/5 200/9/5 199/9/5
f 203/9/5 201/9/5 200/9/5
f 203/9/5 199/9/5 198/9/5
f 204/9/5 201/9/5 203/9/5
f 205/9/6 206/9/6 209/9/6
f 209/9/6 206/9/6 210/9/6
f 207/9/6 208/9/6 211/9/6
f 211/9/6 208/9/6 212/9/6
f 213/4/6 214/4/6 215/4/6
f 215/4/6 214/4/6 216/4/6
