# MagicaVoxel @ Ephtracy

# group
o 

# material
mtllib CHR_Man5.mtl
usemtl palette

# normals
vn -1 0 0
vn 1 0 0
vn 0 0 1
vn 0 0 -1
vn 0 -1 0
vn 0 1 0

# texcoords
vt 0.00195313 0.5
vt 0.00585938 0.5
vt 0.0605469 0.5
vt 0.0683594 0.5
vt 0.537109 0.5
vt 0.841797 0.5
vt 0.904297 0.5
vt 0.958984 0.5
vt 0.982422 0.5
vt 0.994141 0.5

# verts
v -0.4 0.3 0
v -0.4 0.3 -0.2
v -0.4 0.5 0
v -0.4 0.5 -0.2
v -0.4 0.7 0
v -0.4 0.7 -0.2
v -0.4 1 -0.1
v -0.4 1 -0.3
v -0.4 1.1 0.2
v -0.4 1.1 -0.1
v -0.4 1.2 0.2
v -0.4 1.2 0.1
v -0.4 1.2 -0.2
v -0.4 1.2 -0.3
v -0.4 1.3 0.1
v -0.4 1.3 -0.2
v -0.3 0.3 0.2
v -0.3 0.3 0
v -0.3 0.3 -0.2
v -0.3 0.3 -0.3
v -0.3 0.5 0
v -0.3 0.5 -0.2
v -0.3 0.7 0.2
v -0.3 0.7 0
v -0.3 0.7 -0.2
v -0.3 0.7 -0.3
v -0.3 0.8 0.1
v -0.3 0.8 0
v -0.3 0.9 -0.1
v -0.3 0.9 -0.3
v -0.3 1 0
v -0.3 1 -0.1
v -0.3 1 -0.3
v -0.3 1 -0.4
v -0.3 1.1 0.3
v -0.3 1.1 0.2
v -0.3 1.1 0.1
v -0.3 1.1 -0.1
v -0.3 1.1 -0.3
v -0.3 1.1 -0.4
v -0.3 1.2 0.2
v -0.3 1.2 0.1
v -0.3 1.2 -0.2
v -0.3 1.2 -0.3
v -0.3 1.3 0.3
v -0.3 1.3 0.2
v -0.3 1.3 0.1
v -0.3 1.3 -0.2
v -0.3 1.4 0.2
v -0.3 1.4 -0.3
v -0.2 0 0
v -0.2 0 -0.1
v -0.2 0.1 0
v -0.2 0.1 -0.1
v -0.2 0.3 0
v -0.2 0.3 -0.1
v -0.2 1.1 0.5
v -0.2 1.1 0.3
v -0.2 1.1 -0.3
v -0.2 1.1 -0.4
v -0.2 1.2 0.5
v -0.2 1.2 0.3
v -0.2 1.4 0.1
v -0.2 1.4 -0.2
v -0.2 1.4 -0.3
v -0.2 1.4 -0.4
v -0.2 1.5 0.1
v -0.2 1.5 -0.2
v -0.1 1.4 0.2
v -0.1 1.4 0.1
v -0.1 1.4 -0.2
v -0.1 1.4 -0.3
v -0.1 1.5 0.2
v -0.1 1.5 0.1
v -0.1 1.5 -0.2
v -0.1 1.5 -0.3
v 0.1 0 0
v 0.1 0 -0.1
v 0.1 0.1 0
v 0.1 0.1 -0.1
v 0.1 0.3 0
v 0.1 0.3 -0.1
v -0.1 0 0
v -0.1 0 -0.1
v -0.1 0.1 0
v -0.1 0.1 -0.1
v -0.1 0.3 0
v -0.1 0.3 -0.1
v 0.1 1.4 0.2
v 0.1 1.4 0.1
v 0.1 1.4 -0.2
v 0.1 1.4 -0.3
v 0.1 1.5 0.2
v 0.1 1.5 0.1
v 0.1 1.5 -0.2
v 0.1 1.5 -0.3
v 0.2 0 0
v 0.2 0 -0.1
v 0.2 0.1 0
v 0.2 0.1 -0.1
v 0.2 0.3 0
v 0.2 0.3 -0.1
v 0.2 1.1 0.5
v 0.2 1.1 0.3
v 0.2 1.1 -0.3
v 0.2 1.1 -0.4
v 0.2 1.2 0.5
v 0.2 1.2 0.3
v 0.2 1.4 0.1
v 0.2 1.4 -0.2
v 0.2 1.4 -0.3
v 0.2 1.4 -0.4
v 0.2 1.5 0.1
v 0.2 1.5 -0.2
v 0.3 0.3 0.2
v 0.3 0.3 0
v 0.3 0.3 -0.2
v 0.3 0.3 -0.3
v 0.3 0.5 0
v 0.3 0.5 -0.2
v 0.3 0.7 0.2
v 0.3 0.7 0
v 0.3 0.7 -0.2
v 0.3 0.7 -0.3
v 0.3 0.8 0.1
v 0.3 0.8 0
v 0.3 0.9 -0.1
v 0.3 0.9 -0.3
v 0.3 1 0
v 0.3 1 -0.1
v 0.3 1 -0.3
v 0.3 1 -0.4
v 0.3 1.1 0.3
v 0.3 1.1 0.2
v 0.3 1.1 0.1
v 0.3 1.1 -0.1
v 0.3 1.1 -0.3
v 0.3 1.1 -0.4
v 0.3 1.2 0.2
v 0.3 1.2 0.1
v 0.3 1.2 -0.2
v 0.3 1.2 -0.3
v 0.3 1.3 0.3
v 0.3 1.3 0.2
v 0.3 1.3 0.1
v 0.3 1.3 -0.2
v 0.3 1.4 0.2
v 0.3 1.4 -0.3
v 0.4 0.3 0
v 0.4 0.3 -0.2
v 0.4 0.5 0
v 0.4 0.5 -0.2
v 0.4 0.7 0
v 0.4 0.7 -0.2
v 0.4 1 -0.1
v 0.4 1 -0.3
v 0.4 1.1 0.2
v 0.4 1.1 -0.1
v 0.4 1.2 0.2
v 0.4 1.2 0.1
v 0.4 1.2 -0.2
v 0.4 1.2 -0.3
v 0.4 1.3 0.1
v 0.4 1.3 -0.2
v -0.2 1.1 0.5
v -0.2 1.2 0.5
v 0.2 1.1 0.5
v 0.2 1.2 0.5
v -0.3 1.1 0.3
v -0.3 1.3 0.3
v -0.2 1.1 0.3
v -0.2 1.2 0.3
v 0.2 1.1 0.3
v 0.2 1.2 0.3
v 0.3 1.1 0.3
v 0.3 1.3 0.3
v -0.4 1.1 0.2
v -0.4 1.2 0.2
v -0.3 0.3 0.2
v -0.3 0.7 0.2
v -0.3 1.1 0.2
v -0.3 1.2 0.2
v -0.3 1.3 0.2
v -0.3 1.4 0.2
v -0.2 0.9 0.2
v -0.2 1 0.2
v -0.1 0.9 0.2
v -0.1 1 0.2
v -0.1 1.4 0.2
v -0.1 1.5 0.2
v 0.1 0.9 0.2
v 0.1 1 0.2
v 0.1 1.4 0.2
v 0.1 1.5 0.2
v 0.2 0.9 0.2
v 0.2 1 0.2
v 0.3 0.3 0.2
v 0.3 0.7 0.2
v 0.3 1.1 0.2
v 0.3 1.2 0.2
v 0.3 1.3 0.2
v 0.3 1.4 0.2
v 0.4 1.1 0.2
v 0.4 1.2 0.2
v -0.4 1.2 0.1
v -0.4 1.3 0.1
v -0.3 1.2 0.1
v -0.3 1.3 0.1
v -0.2 1.4 0.1
v -0.2 1.5 0.1
v -0.1 1.4 0.1
v -0.1 1.5 0.1
v 0.1 1.4 0.1
v 0.1 1.5 0.1
v 0.2 1.4 0.1
v 0.2 1.5 0.1
v 0.3 1.2 0.1
v 0.3 1.3 0.1
v 0.4 1.2 0.1
v 0.4 1.3 0.1
v -0.4 0.3 0
v -0.4 0.5 0
v -0.4 0.7 0
v -0.3 0.3 0
v -0.3 0.5 0
v -0.3 0.7 0
v -0.2 0 0
v -0.2 0.1 0
v -0.2 0.3 0
v -0.1 0 0
v -0.1 0.1 0
v -0.1 0.3 0
v 0.1 0 0
v 0.1 0.1 0
v 0.1 0.3 0
v 0.2 0 0
v 0.2 0.1 0
v 0.2 0.3 0
v 0.3 0.3 0
v 0.3 0.5 0
v 0.3 0.7 0
v 0.4 0.3 0
v 0.4 0.5 0
v 0.4 0.7 0
v -0.4 1 -0.1
v -0.4 1.1 -0.1
v -0.3 1 -0.1
v -0.3 1.1 -0.1
v 0.3 1 -0.1
v 0.3 1.1 -0.1
v 0.4 1 -0.1
v 0.4 1.1 -0.1
v -0.2 0 -0.1
v -0.2 0.1 -0.1
v -0.2 0.3 -0.1
v -0.1 0 -0.1
v -0.1 0.1 -0.1
v -0.1 0.3 -0.1
v 0.1 0 -0.1
v 0.1 0.1 -0.1
v 0.1 0.3 -0.1
v 0.2 0 -0.1
v 0.2 0.1 -0.1
v 0.2 0.3 -0.1
v -0.4 0.3 -0.2
v -0.4 0.5 -0.2
v -0.4 0.7 -0.2
v -0.4 1.2 -0.2
v -0.4 1.3 -0.2
v -0.3 0.3 -0.2
v -0.3 0.5 -0.2
v -0.3 0.7 -0.2
v -0.3 1.2 -0.2
v -0.3 1.3 -0.2
v -0.2 1.4 -0.2
v -0.2 1.5 -0.2
v -0.1 1.4 -0.2
v -0.1 1.5 -0.2
v 0.1 1.4 -0.2
v 0.1 1.5 -0.2
v 0.2 1.4 -0.2
v 0.2 1.5 -0.2
v 0.3 0.3 -0.2
v 0.3 0.5 -0.2
v 0.3 0.7 -0.2
v 0.3 1.2 -0.2
v 0.3 1.3 -0.2
v 0.4 0.3 -0.2
v 0.4 0.5 -0.2
v 0.4 0.7 -0.2
v 0.4 1.2 -0.2
v 0.4 1.3 -0.2
v -0.4 1 -0.3
v -0.4 1.2 -0.3
v -0.3 0.3 -0.3
v -0.3 0.7 -0.3
v -0.3 0.9 -0.3
v -0.3 1 -0.3
v -0.3 1.1 -0.3
v -0.3 1.2 -0.3
v -0.3 1.4 -0.3
v -0.2 0.8 -0.3
v -0.2 0.9 -0.3
v -0.2 1.1 -0.3
v -0.2 1.4 -0.3
v -0.1 1.4 -0.3
v -0.1 1.5 -0.3
v 0.1 1.4 -0.3
v 0.1 1.5 -0.3
v 0.2 0.8 -0.3
v 0.2 0.9 -0.3
v 0.2 1.1 -0.3
v 0.2 1.4 -0.3
v 0.3 0.3 -0.3
v 0.3 0.7 -0.3
v 0.3 0.9 -0.3
v 0.3 1 -0.3
v 0.3 1.1 -0.3
v 0.3 1.2 -0.3
v 0.3 1.4 -0.3
v 0.4 1 -0.3
v 0.4 1.2 -0.3
v -0.3 1 -0.4
v -0.3 1.1 -0.4
v -0.2 1.1 -0.4
v -0.2 1.4 -0.4
v 0.2 1.1 -0.4
v 0.2 1.4 -0.4
v 0.3 1 -0.4
v 0.3 1.1 -0.4
v -0.2 0 0
v -0.1 0 0
v 0.1 0 0
v 0.2 0 0
v -0.2 0 -0.1
v -0.1 0 -0.1
v 0.1 0 -0.1
v 0.2 0 -0.1
v -0.3 0.3 0.2
v 0.3 0.3 0.2
v -0.2 0.3 0.1
v 0.2 0.3 0.1
v -0.4 0.3 0
v -0.3 0.3 0
v -0.2 0.3 0
v -0.1 0.3 0
v 0.1 0.3 0
v 0.2 0.3 0
v 0.3 0.3 0
v 0.4 0.3 0
v -0.2 0.3 -0.1
v -0.1 0.3 -0.1
v 0.1 0.3 -0.1
v 0.2 0.3 -0.1
v -0.4 0.3 -0.2
v -0.3 0.3 -0.2
v -0.2 0.3 -0.2
v 0.2 0.3 -0.2
v 0.3 0.3 -0.2
v 0.4 0.3 -0.2
v -0.3 0.3 -0.3
v 0.3 0.3 -0.3
v -0.4 1 -0.1
v -0.3 1 -0.1
v 0.3 1 -0.1
v 0.4 1 -0.1
v -0.4 1 -0.3
v -0.3 1 -0.3
v 0.3 1 -0.3
v 0.4 1 -0.3
v -0.3 1 -0.4
v 0.3 1 -0.4
v -0.2 1.1 0.5
v 0.2 1.1 0.5
v -0.3 1.1 0.3
v -0.2 1.1 0.3
v 0.2 1.1 0.3
v 0.3 1.1 0.3
v -0.4 1.1 0.2
v -0.3 1.1 0.2
v 0.3 1.1 0.2
v 0.4 1.1 0.2
v -0.3 1.1 0.1
v 0.3 1.1 0.1
v -0.4 1.1 -0.1
v -0.3 1.1 -0.1
v 0.3 1.1 -0.1
v 0.4 1.1 -0.1
v -0.4 0.7 0
v -0.3 0.7 0
v 0.3 0.7 0
v 0.4 0.7 0
v -0.4 0.7 -0.2
v -0.3 0.7 -0.2
v 0.3 0.7 -0.2
v 0.4 0.7 -0.2
v -0.3 1.1 -0.3
v -0.2 1.1 -0.3
v 0.2 1.1 -0.3
v 0.3 1.1 -0.3
v -0.3 1.1 -0.4
v -0.2 1.1 -0.4
v 0.2 1.1 -0.4
v 0.3 1.1 -0.4
v -0.2 1.2 0.5
v 0.2 1.2 0.5
v -0.2 1.2 0.3
v 0.2 1.2 0.3
v -0.4 1.2 0.2
v -0.3 1.2 0.2
v 0.3 1.2 0.2
v 0.4 1.2 0.2
v -0.4 1.2 0.1
v -0.3 1.2 0.1
v 0.3 1.2 0.1
v 0.4 1.2 0.1
v -0.4 1.2 -0.2
v -0.3 1.2 -0.2
v 0.3 1.2 -0.2
v 0.4 1.2 -0.2
v -0.4 1.2 -0.3
v -0.3 1.2 -0.3
v 0.3 1.2 -0.3
v 0.4 1.2 -0.3
v -0.3 1.3 0.3
v 0.3 1.3 0.3
v -0.3 1.3 0.2
v 0.3 1.3 0.2
v -0.4 1.3 0.1
v -0.3 1.3 0.1
v 0.3 1.3 0.1
v 0.4 1.3 0.1
v -0.4 1.3 -0.2
v -0.3 1.3 -0.2
v 0.3 1.3 -0.2
v 0.4 1.3 -0.2
v -0.3 1.4 0.2
v -0.1 1.4 0.2
v 0.1 1.4 0.2
v 0.3 1.4 0.2
v -0.2 1.4 0.1
v -0.1 1.4 0.1
v 0.1 1.4 0.1
v 0.2 1.4 0.1
v -0.2 1.4 -0.2
v -0.1 1.4 -0.2
v 0.1 1.4 -0.2
v 0.2 1.4 -0.2
v -0.3 1.4 -0.3
v -0.2 1.4 -0.3
v -0.1 1.4 -0.3
v 0.1 1.4 -0.3
v 0.2 1.4 -0.3
v 0.3 1.4 -0.3
v -0.2 1.4 -0.4
v 0.2 1.4 -0.4
v -0.1 1.5 0.2
v 0.1 1.5 0.2
v -0.2 1.5 0.1
v -0.1 1.5 0.1
v 0.1 1.5 0.1
v 0.2 1.5 0.1
v -0.2 1.5 -0.2
v -0.1 1.5 -0.2
v 0.1 1.5 -0.2
v 0.2 1.5 -0.2
v -0.1 1.5 -0.3
v 0.1 1.5 -0.3

# faces
f 3/3/1 2/3/1 1/3/1
f 4/3/1 2/3/1 3/3/1
f 5/10/1 4/10/1 3/10/1
f 6/10/1 4/10/1 5/10/1
f 10/7/1 8/7/1 7/7/1
f 11/7/1 10/7/1 9/7/1
f 12/7/1 10/7/1 11/7/1
f 13/7/1 8/7/1 10/7/1
f 13/7/1 10/7/1 12/7/1
f 14/7/1 8/7/1 13/7/1
f 15/7/1 13/7/1 12/7/1
f 16/7/1 13/7/1 15/7/1
f 21/10/1 18/10/1 17/10/1
f 22/10/1 20/10/1 19/10/1
f 23/10/1 21/10/1 17/10/1
f 24/10/1 21/10/1 23/10/1
f 25/10/1 20/10/1 22/10/1
f 26/10/1 20/10/1 25/10/1
f 27/3/1 24/3/1 23/3/1
f 27/3/1 25/3/1 24/3/1
f 27/3/1 26/3/1 25/3/1
f 28/3/1 26/3/1 27/3/1
f 29/3/1 26/3/1 28/3/1
f 30/3/1 26/3/1 29/3/1
f 31/10/1 28/10/1 27/10/1
f 31/3/1 29/3/1 28/3/1
f 32/10/1 30/10/1 29/10/1
f 32/3/1 29/3/1 31/3/1
f 33/10/1 30/10/1 32/10/1
f 36/3/1 27/3/1 23/3/1
f 37/10/1 31/10/1 27/10/1
f 37/10/1 32/10/1 31/10/1
f 37/3/1 27/3/1 36/3/1
f 38/10/1 32/10/1 37/10/1
f 39/7/1 34/7/1 33/7/1
f 40/7/1 34/7/1 39/7/1
f 41/7/1 36/7/1 35/7/1
f 45/7/1 41/7/1 35/7/1
f 45/7/1 42/7/1 41/7/1
f 46/7/1 42/7/1 45/7/1
f 47/7/1 42/7/1 46/7/1
f 48/7/1 44/7/1 43/7/1
f 49/7/1 47/7/1 46/7/1
f 49/7/1 48/7/1 47/7/1
f 50/7/1 44/7/1 48/7/1
f 50/7/1 48/7/1 49/7/1
f 53/8/1 52/8/1 51/8/1
f 54/8/1 52/8/1 53/8/1
f 55/9/1 54/9/1 53/9/1
f 56/9/1 54/9/1 55/9/1
f 61/7/1 58/7/1 57/7/1
f 62/7/1 58/7/1 61/7/1
f 65/7/1 60/7/1 59/7/1
f 66/7/1 60/7/1 65/7/1
f 67/7/1 64/7/1 63/7/1
f 68/7/1 64/7/1 67/7/1
f 73/7/1 70/7/1 69/7/1
f 74/7/1 70/7/1 73/7/1
f 75/7/1 72/7/1 71/7/1
f 76/7/1 72/7/1 75/7/1
f 79/8/1 78/8/1 77/8/1
f 80/8/1 78/8/1 79/8/1
f 81/9/1 80/9/1 79/9/1
f 82/9/1 80/9/1 81/9/1
f 83/8/2 84/8/2 85/8/2
f 85/8/2 84/8/2 86/8/2
f 85/9/2 86/9/2 87/9/2
f 87/9/2 86/9/2 88/9/2
f 89/7/2 90/7/2 93/7/2
f 93/7/2 90/7/2 94/7/2
f 91/7/2 92/7/2 95/7/2
f 95/7/2 92/7/2 96/7/2
f 97/8/2 98/8/2 99/8/2
f 99/8/2 98/8/2 100/8/2
f 99/9/2 100/9/2 101/9/2
f 101/9/2 100/9/2 102/9/2
f 103/7/2 104/7/2 107/7/2
f 107/7/2 104/7/2 108/7/2
f 105/7/2 106/7/2 111/7/2
f 111/7/2 106/7/2 112/7/2
f 109/7/2 110/7/2 113/7/2
f 113/7/2 110/7/2 114/7/2
f 115/10/2 116/10/2 119/10/2
f 117/10/2 118/10/2 120/10/2
f 115/10/2 119/10/2 121/10/2
f 121/10/2 119/10/2 122/10/2
f 120/10/2 118/10/2 123/10/2
f 123/10/2 118/10/2 124/10/2
f 121/3/2 122/3/2 125/3/2
f 122/3/2 123/3/2 125/3/2
f 123/3/2 124/3/2 125/3/2
f 125/3/2 124/3/2 126/3/2
f 126/3/2 124/3/2 127/3/2
f 127/3/2 124/3/2 128/3/2
f 125/10/2 126/10/2 129/10/2
f 126/3/2 127/3/2 129/3/2
f 127/10/2 128/10/2 130/10/2
f 129/3/2 127/3/2 130/3/2
f 130/10/2 128/10/2 131/10/2
f 121/3/2 125/3/2 134/3/2
f 125/10/2 129/10/2 135/10/2
f 129/10/2 130/10/2 135/10/2
f 134/3/2 125/3/2 135/3/2
f 135/10/2 130/10/2 136/10/2
f 131/7/2 132/7/2 137/7/2
f 137/7/2 132/7/2 138/7/2
f 133/7/2 134/7/2 139/7/2
f 133/7/2 139/7/2 143/7/2
f 139/7/2 140/7/2 143/7/2
f 143/7/2 140/7/2 144/7/2
f 144/7/2 140/7/2 145/7/2
f 141/7/2 142/7/2 146/7/2
f 144/7/2 145/7/2 147/7/2
f 145/7/2 146/7/2 147/7/2
f 146/7/2 142/7/2 148/7/2
f 147/7/2 146/7/2 148/7/2
f 149/3/2 150/3/2 151/3/2
f 151/3/2 150/3/2 152/3/2
f 151/10/2 152/10/2 153/10/2
f 153/10/2 152/10/2 154/10/2
f 155/7/2 156/7/2 158/7/2
f 157/7/2 158/7/2 159/7/2
f 159/7/2 158/7/2 160/7/2
f 158/7/2 156/7/2 161/7/2
f 160/7/2 158/7/2 161/7/2
f 161/7/2 156/7/2 162/7/2
f 160/7/2 161/7/2 163/7/2
f 163/7/2 161/7/2 164/7/2
f 167/7/3 166/7/3 165/7/3
f 168/7/3 166/7/3 167/7/3
f 171/7/3 170/7/3 169/7/3
f 172/7/3 170/7/3 171/7/3
f 174/7/3 170/7/3 172/7/3
f 175/7/3 174/7/3 173/7/3
f 176/7/3 170/7/3 174/7/3
f 176/7/3 174/7/3 175/7/3
f 181/7/3 178/7/3 177/7/3
f 182/7/3 178/7/3 181/7/3
f 185/3/3 181/3/3 180/3/3
f 186/3/3 181/3/3 185/3/3
f 187/3/3 185/3/3 180/3/3
f 187/10/3 186/10/3 185/10/3
f 188/3/3 181/3/3 186/3/3
f 188/10/3 186/10/3 187/10/3
f 189/7/3 184/7/3 183/7/3
f 191/3/3 187/3/3 180/3/3
f 191/3/3 188/3/3 187/3/3
f 192/3/3 181/3/3 188/3/3
f 192/3/3 188/3/3 191/3/3
f 193/7/3 190/7/3 189/7/3
f 193/7/3 189/7/3 183/7/3
f 194/7/3 190/7/3 193/7/3
f 195/3/3 191/3/3 180/3/3
f 195/10/3 192/10/3 191/10/3
f 196/3/3 181/3/3 192/3/3
f 196/10/3 192/10/3 195/10/3
f 197/10/3 180/10/3 179/10/3
f 198/3/3 195/3/3 180/3/3
f 198/10/3 180/10/3 197/10/3
f 198/3/3 196/3/3 195/3/3
f 199/3/3 181/3/3 196/3/3
f 199/3/3 196/3/3 198/3/3
f 201/7/3 193/7/3 183/7/3
f 202/7/3 193/7/3 201/7/3
f 203/7/3 200/7/3 199/7/3
f 204/7/3 200/7/3 203/7/3
f 207/7/3 206/7/3 205/7/3
f 208/7/3 206/7/3 207/7/3
f 211/7/3 210/7/3 209/7/3
f 212/7/3 210/7/3 211/7/3
f 215/7/3 214/7/3 213/7/3
f 216/7/3 214/7/3 215/7/3
f 219/7/3 218/7/3 217/7/3
f 220/7/3 218/7/3 219/7/3
f 224/3/3 222/3/3 221/3/3
f 225/10/3 223/10/3 222/10/3
f 225/3/3 222/3/3 224/3/3
f 226/10/3 223/10/3 225/10/3
f 230/8/3 228/8/3 227/8/3
f 231/9/3 229/9/3 228/9/3
f 231/8/3 228/8/3 230/8/3
f 232/9/3 229/9/3 231/9/3
f 236/8/3 234/8/3 233/8/3
f 237/9/3 235/9/3 234/9/3
f 237/8/3 234/8/3 236/8/3
f 238/9/3 235/9/3 237/9/3
f 242/3/3 240/3/3 239/3/3
f 243/10/3 241/10/3 240/10/3
f 243/3/3 240/3/3 242/3/3
f 244/10/3 241/10/3 243/10/3
f 247/7/3 246/7/3 245/7/3
f 248/7/3 246/7/3 247/7/3
f 251/7/3 250/7/3 249/7/3
f 252/7/3 250/7/3 251/7/3
f 253/8/4 254/8/4 256/8/4
f 254/9/4 255/9/4 257/9/4
f 256/8/4 254/8/4 257/8/4
f 257/9/4 255/9/4 258/9/4
f 259/8/4 260/8/4 262/8/4
f 260/9/4 261/9/4 263/9/4
f 262/8/4 260/8/4 263/8/4
f 263/9/4 261/9/4 264/9/4
f 265/3/4 266/3/4 270/3/4
f 266/10/4 267/10/4 271/10/4
f 270/3/4 266/3/4 271/3/4
f 271/10/4 267/10/4 272/10/4
f 268/7/4 269/7/4 273/7/4
f 273/7/4 269/7/4 274/7/4
f 275/7/4 276/7/4 277/7/4
f 277/7/4 276/7/4 278/7/4
f 279/7/4 280/7/4 281/7/4
f 281/7/4 280/7/4 282/7/4
f 283/3/4 284/3/4 288/3/4
f 284/10/4 285/10/4 289/10/4
f 288/3/4 284/3/4 289/3/4
f 289/10/4 285/10/4 290/10/4
f 286/7/4 287/7/4 291/7/4
f 291/7/4 287/7/4 292/7/4
f 293/7/4 294/7/4 298/7/4
f 298/7/4 294/7/4 299/7/4
f 299/7/4 294/7/4 300/7/4
f 296/3/4 297/3/4 302/3/4
f 297/10/4 298/10/4 303/10/4
f 302/3/4 297/3/4 303/3/4
f 300/7/4 301/7/4 304/7/4
f 299/7/4 300/7/4 304/7/4
f 304/7/4 301/7/4 305/7/4
f 306/7/4 307/7/4 308/7/4
f 308/7/4 307/7/4 309/7/4
f 296/3/4 302/3/4 310/3/4
f 302/10/4 303/10/4 310/10/4
f 303/10/4 298/10/4 311/10/4
f 310/10/4 303/10/4 311/10/4
f 295/10/4 296/10/4 314/10/4
f 296/3/4 310/3/4 315/3/4
f 314/10/4 296/10/4 315/10/4
f 310/3/4 311/3/4 315/3/4
f 311/10/4 298/10/4 316/10/4
f 315/3/4 311/3/4 316/3/4
f 316/10/4 298/10/4 317/10/4
f 312/7/4 313/7/4 318/7/4
f 318/7/4 313/7/4 319/7/4
f 319/7/4 313/7/4 320/7/4
f 318/7/4 319/7/4 321/7/4
f 317/7/4 318/7/4 321/7/4
f 321/7/4 319/7/4 322/7/4
f 323/7/4 324/7/4 325/7/4
f 323/7/4 325/7/4 327/7/4
f 325/7/4 326/7/4 327/7/4
f 327/7/4 326/7/4 328/7/4
f 323/7/4 327/7/4 329/7/4
f 329/7/4 327/7/4 330/7/4
f 335/8/5 332/8/5 331/8/5
f 336/8/5 332/8/5 335/8/5
f 337/8/5 334/8/5 333/8/5
f 338/8/5 334/8/5 337/8/5
f 341/10/5 340/10/5 339/10/5
f 342/10/5 340/10/5 341/10/5
f 344/10/5 341/10/5 339/10/5
f 345/9/5 342/9/5 341/9/5
f 345/10/5 341/10/5 344/10/5
f 346/9/5 342/9/5 345/9/5
f 347/9/5 342/9/5 346/9/5
f 348/10/5 340/10/5 342/10/5
f 348/9/5 342/9/5 347/9/5
f 349/10/5 340/10/5 348/10/5
f 351/10/5 345/10/5 344/10/5
f 352/9/5 347/9/5 346/9/5
f 353/9/5 347/9/5 352/9/5
f 354/10/5 349/10/5 348/10/5
f 355/3/5 344/3/5 343/3/5
f 356/10/5 351/10/5 344/10/5
f 356/3/5 344/3/5 355/3/5
f 357/9/5 354/9/5 353/9/5
f 357/10/5 351/10/5 356/10/5
f 357/9/5 353/9/5 352/9/5
f 357/9/5 352/9/5 351/9/5
f 358/10/5 349/10/5 354/10/5
f 358/9/5 354/9/5 357/9/5
f 359/3/5 350/3/5 349/3/5
f 359/10/5 349/10/5 358/10/5
f 360/3/5 350/3/5 359/3/5
f 361/10/5 358/10/5 357/10/5
f 361/10/5 359/10/5 358/10/5
f 361/10/5 357/10/5 356/10/5
f 362/10/5 359/10/5 361/10/5
f 367/7/5 364/7/5 363/7/5
f 368/7/5 364/7/5 367/7/5
f 369/7/5 366/7/5 365/7/5
f 370/7/5 366/7/5 369/7/5
f 371/7/5 369/7/5 368/7/5
f 372/7/5 369/7/5 371/7/5
f 376/7/5 374/7/5 373/7/5
f 377/7/5 374/7/5 376/7/5
f 380/7/5 376/7/5 375/7/5
f 380/7/5 378/7/5 377/7/5
f 380/7/5 377/7/5 376/7/5
f 381/7/5 378/7/5 380/7/5
f 383/7/5 380/7/5 379/7/5
f 384/7/5 382/7/5 381/7/5
f 385/7/5 383/7/5 379/7/5
f 386/7/5 383/7/5 385/7/5
f 387/7/5 382/7/5 384/7/5
f 388/7/5 382/7/5 387/7/5
f 389/10/6 390/10/6 393/10/6
f 393/10/6 390/10/6 394/10/6
f 391/10/6 392/10/6 395/10/6
f 395/10/6 392/10/6 396/10/6
f 397/7/6 398/7/6 401/7/6
f 401/7/6 398/7/6 402/7/6
f 399/7/6 400/7/6 403/7/6
f 403/7/6 400/7/6 404/7/6
f 405/7/6 406/7/6 407/7/6
f 407/7/6 406/7/6 408/7/6
f 409/7/6 410/7/6 413/7/6
f 413/7/6 410/7/6 414/7/6
f 411/7/6 412/7/6 415/7/6
f 415/7/6 412/7/6 416/7/6
f 417/7/6 418/7/6 421/7/6
f 421/7/6 418/7/6 422/7/6
f 419/7/6 420/7/6 423/7/6
f 423/7/6 420/7/6 424/7/6
f 425/7/6 426/7/6 427/7/6
f 427/7/6 426/7/6 428/7/6
f 429/7/6 430/7/6 433/7/6
f 433/7/6 430/7/6 434/7/6
f 431/7/6 432/7/6 435/7/6
f 435/7/6 432/7/6 436/7/6
f 437/7/6 438/7/6 441/7/6
f 441/7/6 438/7/6 442/7/6
f 439/7/6 440/7/6 443/7/6
f 443/7/6 440/7/6 444/7/6
f 437/7/6 441/7/6 445/7/6
f 444/7/6 440/7/6 448/7/6
f 445/7/6 446/7/6 449/7/6
f 437/7/6 445/7/6 449/7/6
f 449/7/6 446/7/6 450/7/6
f 450/7/6 446/7/6 451/7/6
f 447/7/6 448/7/6 452/7/6
f 448/7/6 440/7/6 453/7/6
f 452/7/6 448/7/6 453/7/6
f 453/7/6 440/7/6 454/7/6
f 450/7/6 451/7/6 455/7/6
f 451/7/6 452/7/6 455/7/6
f 452/7/6 453/7/6 455/7/6
f 455/7/6 453/7/6 456/7/6
f 457/7/6 458/7/6 460/7/6
f 460/7/6 458/7/6 461/7/6
f 459/7/6 460/7/6 463/7/6
f 461/7/6 462/7/6 463/7/6
f 460/7/6 461/7/6 463/7/6
f 463/7/6 462/7/6 464/7/6
f 464/7/6 462/7/6 465/7/6
f 465/7/6 462/7/6 466/7/6
f 464/7/6 465/7/6 467/7/6
f 467/7/6 465/7/6 468/7/6
