# MagicaVoxel @ Ephtracy

# group
o 

# material
mtllib CHR_Man4.mtl
usemtl palette

# normals
vn -1 0 0
vn 1 0 0
vn 0 0 1
vn 0 0 -1
vn 0 -1 0
vn 0 1 0

# texcoords
vt 0.00195313 0.5
vt 0.00585938 0.5
vt 0.0683594 0.5
vt 0.537109 0.5
vt 0.841797 0.5
vt 0.912109 0.5
vt 0.958984 0.5
vt 0.962891 0.5
vt 0.994141 0.5

# verts
v -0.4 0.3 0
v -0.4 0.3 -0.2
v -0.4 0.4 0
v -0.4 0.4 -0.2
v -0.4 0.7 0
v -0.4 0.7 -0.2
v -0.3 0.3 0.2
v -0.3 0.3 0
v -0.3 0.3 -0.2
v -0.3 0.3 -0.3
v -0.3 0.4 0
v -0.3 0.4 -0.2
v -0.3 0.7 0.2
v -0.3 0.7 0
v -0.3 0.7 -0.2
v -0.3 0.7 -0.3
v -0.3 0.9 0.2
v -0.3 0.9 0.1
v -0.3 0.9 -0.1
v -0.3 0.9 -0.3
v -0.3 1 0
v -0.3 1 -0.1
v -0.3 1.1 0.2
v -0.3 1.1 0.1
v -0.3 1.2 0.2
v -0.3 1.2 -0.3
v -0.2 0 0
v -0.2 0 -0.1
v -0.2 0.1 0
v -0.2 0.1 -0.1
v -0.2 0.3 0
v -0.2 0.3 -0.1
v 0.1 0 0
v 0.1 0 -0.1
v 0.1 0.1 0
v 0.1 0.1 -0.1
v 0.1 0.3 0
v 0.1 0.3 -0.1
v -0.1 0 0
v -0.1 0 -0.1
v -0.1 0.1 0
v -0.1 0.1 -0.1
v -0.1 0.3 0
v -0.1 0.3 -0.1
v 0.2 0 0
v 0.2 0 -0.1
v 0.2 0.1 0
v 0.2 0.1 -0.1
v 0.2 0.3 0
v 0.2 0.3 -0.1
v 0.3 0.3 0.2
v 0.3 0.3 0
v 0.3 0.3 -0.2
v 0.3 0.3 -0.3
v 0.3 0.4 0
v 0.3 0.4 -0.2
v 0.3 0.7 0.2
v 0.3 0.7 0
v 0.3 0.7 -0.2
v 0.3 0.7 -0.3
v 0.3 0.9 0.2
v 0.3 0.9 0.1
v 0.3 0.9 -0.1
v 0.3 0.9 -0.3
v 0.3 1 0.2
v 0.3 1 0.1
v 0.3 1 0
v 0.3 1 -0.1
v 0.3 1.2 0.2
v 0.3 1.2 -0.3
v 0.4 0.3 0
v 0.4 0.3 -0.2
v 0.4 0.4 0
v 0.4 0.4 -0.2
v 0.4 0.7 0
v 0.4 0.7 -0.2
v -0.3 0.3 0.2
v -0.3 0.7 0.2
v -0.3 0.9 0.2
v -0.3 1.1 0.2
v -0.3 1.2 0.2
v -0.2 0.8 0.2
v -0.2 0.9 0.2
v -0.2 1 0.2
v -0.1 0.9 0.2
v -0.1 1 0.2
v 0.1 0.9 0.2
v 0.1 1 0.2
v 0.2 0.8 0.2
v 0.2 0.9 0.2
v 0.2 1 0.2
v 0.2 1.1 0.2
v 0.3 0.3 0.2
v 0.3 0.7 0.2
v 0.3 0.9 0.2
v 0.3 1 0.2
v 0.3 1.2 0.2
v -0.4 0.3 0
v -0.4 0.4 0
v -0.4 0.7 0
v -0.3 0.3 0
v -0.3 0.4 0
v -0.3 0.7 0
v -0.2 0 0
v -0.2 0.1 0
v -0.2 0.3 0
v -0.1 0 0
v -0.1 0.1 0
v -0.1 0.3 0
v 0.1 0 0
v 0.1 0.1 0
v 0.1 0.3 0
v 0.2 0 0
v 0.2 0.1 0
v 0.2 0.3 0
v 0.3 0.3 0
v 0.3 0.4 0
v 0.3 0.7 0
v 0.4 0.3 0
v 0.4 0.4 0
v 0.4 0.7 0
v -0.2 0 -0.1
v -0.2 0.1 -0.1
v -0.2 0.3 -0.1
v -0.1 0 -0.1
v -0.1 0.1 -0.1
v -0.1 0.3 -0.1
v 0.1 0 -0.1
v 0.1 0.1 -0.1
v 0.1 0.3 -0.1
v 0.2 0 -0.1
v 0.2 0.1 -0.1
v 0.2 0.3 -0.1
v -0.4 0.3 -0.2
v -0.4 0.4 -0.2
v -0.4 0.7 -0.2
v -0.3 0.3 -0.2
v -0.3 0.4 -0.2
v -0.3 0.7 -0.2
v 0.3 0.3 -0.2
v 0.3 0.4 -0.2
v 0.3 0.7 -0.2
v 0.4 0.3 -0.2
v 0.4 0.4 -0.2
v 0.4 0.7 -0.2
v -0.3 0.3 -0.3
v -0.3 0.7 -0.3
v -0.3 0.9 -0.3
v -0.3 1.2 -0.3
v -0.2 0.8 -0.3
v -0.2 0.9 -0.3
v 0.2 0.8 -0.3
v 0.2 0.9 -0.3
v 0.3 0.3 -0.3
v 0.3 0.7 -0.3
v 0.3 0.9 -0.3
v 0.3 1.2 -0.3
v -0.2 0 0
v -0.1 0 0
v 0.1 0 0
v 0.2 0 0
v -0.2 0 -0.1
v -0.1 0 -0.1
v 0.1 0 -0.1
v 0.2 0 -0.1
v -0.3 0.3 0.2
v 0.3 0.3 0.2
v -0.2 0.3 0.1
v 0.2 0.3 0.1
v -0.4 0.3 0
v -0.3 0.3 0
v -0.2 0.3 0
v -0.1 0.3 0
v 0.1 0.3 0
v 0.2 0.3 0
v 0.3 0.3 0
v 0.4 0.3 0
v -0.2 0.3 -0.1
v -0.1 0.3 -0.1
v 0.1 0.3 -0.1
v 0.2 0.3 -0.1
v -0.4 0.3 -0.2
v -0.3 0.3 -0.2
v -0.2 0.3 -0.2
v 0.2 0.3 -0.2
v 0.3 0.3 -0.2
v 0.4 0.3 -0.2
v -0.3 0.3 -0.3
v 0.3 0.3 -0.3
v -0.4 0.7 0
v -0.3 0.7 0
v 0.3 0.7 0
v 0.4 0.7 0
v -0.4 0.7 -0.2
v -0.3 0.7 -0.2
v 0.3 0.7 -0.2
v 0.4 0.7 -0.2
v -0.3 1.2 0.2
v 0.3 1.2 0.2
v -0.3 1.2 -0.3
v 0.3 1.2 -0.3

# faces
f 3/4/1 2/4/1 1/4/1
f 4/4/1 2/4/1 3/4/1
f 5/8/1 4/8/1 3/8/1
f 6/8/1 4/8/1 5/8/1
f 11/8/1 8/8/1 7/8/1
f 12/8/1 10/8/1 9/8/1
f 13/8/1 11/8/1 7/8/1
f 14/8/1 11/8/1 13/8/1
f 15/8/1 10/8/1 12/8/1
f 16/8/1 10/8/1 15/8/1
f 17/9/1 14/9/1 13/9/1
f 18/9/1 14/9/1 17/9/1
f 19/4/1 15/4/1 14/4/1
f 19/4/1 16/4/1 15/4/1
f 20/4/1 16/4/1 19/4/1
f 21/9/1 14/9/1 18/9/1
f 21/4/1 19/4/1 14/4/1
f 22/9/1 20/9/1 19/9/1
f 22/4/1 19/4/1 21/4/1
f 23/4/1 18/4/1 17/4/1
f 24/9/1 21/9/1 18/9/1
f 24/4/1 18/4/1 23/4/1
f 24/9/1 22/9/1 21/9/1
f 25/9/1 24/9/1 23/9/1
f 26/9/1 20/9/1 22/9/1
f 26/9/1 24/9/1 25/9/1
f 26/9/1 22/9/1 24/9/1
f 29/7/1 28/7/1 27/7/1
f 30/7/1 28/7/1 29/7/1
f 31/6/1 30/6/1 29/6/1
f 32/6/1 30/6/1 31/6/1
f 35/7/1 34/7/1 33/7/1
f 36/7/1 34/7/1 35/7/1
f 37/6/1 36/6/1 35/6/1
f 38/6/1 36/6/1 37/6/1
f 39/7/2 40/7/2 41/7/2
f 41/7/2 40/7/2 42/7/2
f 41/6/2 42/6/2 43/6/2
f 43/6/2 42/6/2 44/6/2
f 45/7/2 46/7/2 47/7/2
f 47/7/2 46/7/2 48/7/2
f 47/6/2 48/6/2 49/6/2
f 49/6/2 48/6/2 50/6/2
f 51/8/2 52/8/2 55/8/2
f 53/8/2 54/8/2 56/8/2
f 51/8/2 55/8/2 57/8/2
f 57/8/2 55/8/2 58/8/2
f 56/8/2 54/8/2 59/8/2
f 59/8/2 54/8/2 60/8/2
f 57/9/2 58/9/2 61/9/2
f 61/9/2 58/9/2 62/9/2
f 58/4/2 59/4/2 63/4/2
f 59/4/2 60/4/2 63/4/2
f 63/4/2 60/4/2 64/4/2
f 61/4/2 62/4/2 65/4/2
f 62/9/2 58/9/2 66/9/2
f 65/4/2 62/4/2 66/4/2
f 58/4/2 63/4/2 67/4/2
f 66/9/2 58/9/2 67/9/2
f 63/9/2 64/9/2 68/9/2
f 67/4/2 63/4/2 68/4/2
f 65/9/2 66/9/2 69/9/2
f 66/9/2 67/9/2 69/9/2
f 67/9/2 68/9/2 69/9/2
f 68/9/2 64/9/2 70/9/2
f 69/9/2 68/9/2 70/9/2
f 71/4/2 72/4/2 73/4/2
f 73/4/2 72/4/2 74/4/2
f 73/8/2 74/8/2 75/8/2
f 75/8/2 74/8/2 76/8/2
f 82/9/3 79/9/3 78/9/3
f 83/4/3 80/4/3 79/4/3
f 83/9/3 79/9/3 82/9/3
f 84/4/3 80/4/3 83/4/3
f 85/4/3 83/4/3 82/4/3
f 85/9/3 84/9/3 83/9/3
f 86/4/3 80/4/3 84/4/3
f 86/9/3 84/9/3 85/9/3
f 87/4/3 85/4/3 82/4/3
f 87/4/3 86/4/3 85/4/3
f 88/4/3 80/4/3 86/4/3
f 88/4/3 86/4/3 87/4/3
f 89/9/3 82/9/3 78/9/3
f 89/4/3 87/4/3 82/4/3
f 90/9/3 88/9/3 87/9/3
f 90/4/3 87/4/3 89/4/3
f 91/4/3 80/4/3 88/4/3
f 91/9/3 88/9/3 90/9/3
f 92/9/3 81/9/3 80/9/3
f 92/4/3 80/4/3 91/4/3
f 93/8/3 78/8/3 77/8/3
f 94/9/3 90/9/3 89/9/3
f 94/8/3 78/8/3 93/8/3
f 94/9/3 89/9/3 78/9/3
f 95/4/3 91/4/3 90/4/3
f 95/9/3 90/9/3 94/9/3
f 96/9/3 92/9/3 91/9/3
f 96/4/3 91/4/3 95/4/3
f 97/9/3 81/9/3 92/9/3
f 97/9/3 92/9/3 96/9/3
f 101/4/3 99/4/3 98/4/3
f 102/8/3 100/8/3 99/8/3
f 102/4/3 99/4/3 101/4/3
f 103/8/3 100/8/3 102/8/3
f 107/7/3 105/7/3 104/7/3
f 108/6/3 106/6/3 105/6/3
f 108/7/3 105/7/3 107/7/3
f 109/6/3 106/6/3 108/6/3
f 113/7/3 111/7/3 110/7/3
f 114/6/3 112/6/3 111/6/3
f 114/7/3 111/7/3 113/7/3
f 115/6/3 112/6/3 114/6/3
f 119/4/3 117/4/3 116/4/3
f 120/8/3 118/8/3 117/8/3
f 120/4/3 117/4/3 119/4/3
f 121/8/3 118/8/3 120/8/3
f 122/7/4 123/7/4 125/7/4
f 123/6/4 124/6/4 126/6/4
f 125/7/4 123/7/4 126/7/4
f 126/6/4 124/6/4 127/6/4
f 128/7/4 129/7/4 131/7/4
f 129/6/4 130/6/4 132/6/4
f 131/7/4 129/7/4 132/7/4
f 132/6/4 130/6/4 133/6/4
f 134/4/4 135/4/4 137/4/4
f 135/8/4 136/8/4 138/8/4
f 137/4/4 135/4/4 138/4/4
f 138/8/4 136/8/4 139/8/4
f 140/4/4 141/4/4 143/4/4
f 141/8/4 142/8/4 144/8/4
f 143/4/4 141/4/4 144/4/4
f 144/8/4 142/8/4 145/8/4
f 147/4/4 148/4/4 150/4/4
f 148/9/4 149/9/4 151/9/4
f 150/4/4 148/4/4 151/4/4
f 147/4/4 150/4/4 152/4/4
f 150/9/4 151/9/4 152/9/4
f 151/9/4 149/9/4 153/9/4
f 152/9/4 151/9/4 153/9/4
f 146/8/4 147/8/4 154/8/4
f 147/4/4 152/4/4 155/4/4
f 154/8/4 147/8/4 155/8/4
f 152/4/4 153/4/4 155/4/4
f 153/9/4 149/9/4 156/9/4
f 155/4/4 153/4/4 156/4/4
f 156/9/4 149/9/4 157/9/4
f 162/7/5 159/7/5 158/7/5
f 163/7/5 159/7/5 162/7/5
f 164/7/5 161/7/5 160/7/5
f 165/7/5 161/7/5 164/7/5
f 168/8/5 167/8/5 166/8/5
f 169/8/5 167/8/5 168/8/5
f 171/8/5 168/8/5 166/8/5
f 172/6/5 169/6/5 168/6/5
f 172/8/5 168/8/5 171/8/5
f 173/6/5 169/6/5 172/6/5
f 174/6/5 169/6/5 173/6/5
f 175/8/5 167/8/5 169/8/5
f 175/6/5 169/6/5 174/6/5
f 176/8/5 167/8/5 175/8/5
f 178/8/5 172/8/5 171/8/5
f 179/6/5 174/6/5 173/6/5
f 180/6/5 174/6/5 179/6/5
f 181/8/5 176/8/5 175/8/5
f 182/4/5 171/4/5 170/4/5
f 183/8/5 178/8/5 171/8/5
f 183/4/5 171/4/5 182/4/5
f 184/6/5 181/6/5 180/6/5
f 184/8/5 178/8/5 183/8/5
f 184/6/5 180/6/5 179/6/5
f 184/6/5 179/6/5 178/6/5
f 185/8/5 176/8/5 181/8/5
f 185/6/5 181/6/5 184/6/5
f 186/4/5 177/4/5 176/4/5
f 186/8/5 176/8/5 185/8/5
f 187/4/5 177/4/5 186/4/5
f 188/8/5 185/8/5 184/8/5
f 188/8/5 186/8/5 185/8/5
f 188/8/5 184/8/5 183/8/5
f 189/8/5 186/8/5 188/8/5
f 190/8/6 191/8/6 194/8/6
f 194/8/6 191/8/6 195/8/6
f 192/8/6 193/8/6 196/8/6
f 196/8/6 193/8/6 197/8/6
f 198/9/6 199/9/6 200/9/6
f 200/9/6 199/9/6 201/9/6
